<mxfile host="Electron" modified="2023-10-03T11:29:15.610Z" agent="Mozilla/5.0 (Macintosh; Intel Mac OS X 10_15_7) AppleWebKit/537.36 (KHTML, like Gecko) draw.io/22.0.1 Chrome/114.0.5735.289 Electron/25.8.4 Safari/537.36" etag="UWQ_0m0i8N62N0oTyKNF" version="22.0.1" type="device">
  <diagram name="Page-1" id="2iEn5ggF5XT1SGPWybfB">
    <mxGraphModel dx="920" dy="792" grid="1" gridSize="10" guides="1" tooltips="1" connect="1" arrows="1" fold="1" page="1" pageScale="1" pageWidth="1169" pageHeight="827" background="#303136" math="0" shadow="0">
      <root>
        <mxCell id="0" />
        <mxCell id="1" parent="0" />
        <mxCell id="wONUlLobx3IYYTzE_S_x-2" value="" style="rounded=0;whiteSpace=wrap;html=1;fillColor=#b1ddf0;strokeColor=#10739e;" vertex="1" parent="1">
          <mxGeometry x="310" y="150" width="350" height="510" as="geometry" />
        </mxCell>
        <mxCell id="wONUlLobx3IYYTzE_S_x-4" value=".csv" style="shape=note;whiteSpace=wrap;html=1;backgroundOutline=1;darkOpacity=0.05;fontSize=16;size=16;" vertex="1" parent="1">
          <mxGeometry x="200" y="210" width="40" height="60" as="geometry" />
        </mxCell>
        <mxCell id="wONUlLobx3IYYTzE_S_x-5" value="IRIS" style="rounded=1;whiteSpace=wrap;html=1;fontSize=16;fillColor=#1ba1e2;fontColor=#ffffff;strokeColor=#006EAF;" vertex="1" parent="1">
          <mxGeometry x="425" y="160" width="120" height="30" as="geometry" />
        </mxCell>
        <mxCell id="wONUlLobx3IYYTzE_S_x-6" value="File Service" style="rounded=0;whiteSpace=wrap;html=1;fontSize=16;fillColor=#ffe6cc;strokeColor=#d79b00;" vertex="1" parent="1">
          <mxGeometry x="330" y="200" width="80" height="90" as="geometry" />
        </mxCell>
        <mxCell id="wONUlLobx3IYYTzE_S_x-7" value="File Operation" style="rounded=0;whiteSpace=wrap;html=1;fontSize=16;fillColor=#ffe6cc;strokeColor=#d79b00;" vertex="1" parent="1">
          <mxGeometry x="560" y="200" width="80" height="90" as="geometry" />
        </mxCell>
        <mxCell id="wONUlLobx3IYYTzE_S_x-8" value="Local BDD Operation" style="rounded=0;whiteSpace=wrap;html=1;fontSize=16;fillColor=#ffe6cc;strokeColor=#d79b00;" vertex="1" parent="1">
          <mxGeometry x="560" y="420" width="80" height="90" as="geometry" />
        </mxCell>
        <mxCell id="wONUlLobx3IYYTzE_S_x-9" value="Remote BDD Operation" style="rounded=0;whiteSpace=wrap;html=1;fontSize=16;fillColor=#ffe6cc;strokeColor=#d79b00;" vertex="1" parent="1">
          <mxGeometry x="560" y="310" width="80" height="90" as="geometry" />
        </mxCell>
        <mxCell id="wONUlLobx3IYYTzE_S_x-10" value="IRIS" style="shape=cylinder3;whiteSpace=wrap;html=1;boundedLbl=1;backgroundOutline=1;size=15;fontSize=16;fillColor=#1ba1e2;fontColor=#ffffff;strokeColor=#006EAF;" vertex="1" parent="1">
          <mxGeometry x="570" y="550" width="60" height="80" as="geometry" />
        </mxCell>
        <mxCell id="wONUlLobx3IYYTzE_S_x-11" value="Postgres" style="shape=cylinder3;whiteSpace=wrap;html=1;boundedLbl=1;backgroundOutline=1;size=15;fontSize=16;fillColor=#1ba1e2;fontColor=#ffffff;strokeColor=#006EAF;" vertex="1" parent="1">
          <mxGeometry x="710" y="307.5" width="70" height="95" as="geometry" />
        </mxCell>
        <mxCell id="wONUlLobx3IYYTzE_S_x-12" style="edgeStyle=none;curved=1;rounded=0;orthogonalLoop=1;jettySize=auto;html=1;exitX=0.5;exitY=1;exitDx=0;exitDy=0;fontSize=12;startSize=8;endSize=8;" edge="1" parent="1" source="wONUlLobx3IYYTzE_S_x-7" target="wONUlLobx3IYYTzE_S_x-7">
          <mxGeometry relative="1" as="geometry" />
        </mxCell>
        <mxCell id="wONUlLobx3IYYTzE_S_x-14" value="Rest&lt;br&gt;Service" style="rounded=0;whiteSpace=wrap;html=1;fontSize=16;fillColor=#ffe6cc;strokeColor=#d79b00;" vertex="1" parent="1">
          <mxGeometry x="330" y="420" width="80" height="90" as="geometry" />
        </mxCell>
        <mxCell id="wONUlLobx3IYYTzE_S_x-15" value="Main&lt;br&gt;Business&lt;br&gt;Process" style="rounded=0;whiteSpace=wrap;html=1;fontSize=16;fillColor=#ffe6cc;strokeColor=#d79b00;" vertex="1" parent="1">
          <mxGeometry x="435" y="270" width="100" height="130" as="geometry" />
        </mxCell>
        <mxCell id="wONUlLobx3IYYTzE_S_x-16" value="" style="endArrow=classic;html=1;rounded=0;fontSize=12;startSize=8;endSize=8;curved=1;entryX=0;entryY=0.5;entryDx=0;entryDy=0;strokeColor=#FFFFFF;" edge="1" parent="1" target="wONUlLobx3IYYTzE_S_x-6">
          <mxGeometry width="50" height="50" relative="1" as="geometry">
            <mxPoint x="250" y="245" as="sourcePoint" />
            <mxPoint x="500" y="380" as="targetPoint" />
          </mxGeometry>
        </mxCell>
        <mxCell id="wONUlLobx3IYYTzE_S_x-17" value="" style="endArrow=classic;html=1;rounded=0;fontSize=12;startSize=8;endSize=8;curved=1;entryX=0;entryY=0.5;entryDx=0;entryDy=0;entryPerimeter=0;exitX=1;exitY=0.5;exitDx=0;exitDy=0;strokeColor=#FFFFFF;" edge="1" parent="1" source="wONUlLobx3IYYTzE_S_x-9" target="wONUlLobx3IYYTzE_S_x-11">
          <mxGeometry width="50" height="50" relative="1" as="geometry">
            <mxPoint x="450" y="430" as="sourcePoint" />
            <mxPoint x="500" y="380" as="targetPoint" />
          </mxGeometry>
        </mxCell>
        <mxCell id="wONUlLobx3IYYTzE_S_x-18" value="" style="endArrow=classic;html=1;rounded=0;fontSize=12;startSize=8;endSize=8;curved=1;entryX=0;entryY=0.5;entryDx=0;entryDy=0;exitX=1;exitY=0.5;exitDx=0;exitDy=0;" edge="1" parent="1" source="wONUlLobx3IYYTzE_S_x-6" target="wONUlLobx3IYYTzE_S_x-7">
          <mxGeometry width="50" height="50" relative="1" as="geometry">
            <mxPoint x="450" y="430" as="sourcePoint" />
            <mxPoint x="500" y="380" as="targetPoint" />
          </mxGeometry>
        </mxCell>
        <mxCell id="wONUlLobx3IYYTzE_S_x-20" value="" style="endArrow=classic;html=1;rounded=0;fontSize=12;startSize=8;endSize=8;curved=1;entryX=0;entryY=0.5;entryDx=0;entryDy=0;exitX=1;exitY=0.75;exitDx=0;exitDy=0;" edge="1" parent="1" source="wONUlLobx3IYYTzE_S_x-6" target="wONUlLobx3IYYTzE_S_x-15">
          <mxGeometry width="50" height="50" relative="1" as="geometry">
            <mxPoint x="450" y="430" as="sourcePoint" />
            <mxPoint x="500" y="380" as="targetPoint" />
          </mxGeometry>
        </mxCell>
        <mxCell id="wONUlLobx3IYYTzE_S_x-21" value=".txt" style="shape=note;whiteSpace=wrap;html=1;backgroundOutline=1;darkOpacity=0.05;fontSize=16;size=16;" vertex="1" parent="1">
          <mxGeometry x="720" y="215" width="40" height="60" as="geometry" />
        </mxCell>
        <mxCell id="wONUlLobx3IYYTzE_S_x-22" value="" style="endArrow=classic;html=1;rounded=0;fontSize=12;startSize=8;endSize=8;curved=1;entryX=0;entryY=0.5;entryDx=0;entryDy=0;entryPerimeter=0;exitX=1;exitY=0.5;exitDx=0;exitDy=0;strokeColor=#FFFFFF;" edge="1" parent="1" source="wONUlLobx3IYYTzE_S_x-7" target="wONUlLobx3IYYTzE_S_x-21">
          <mxGeometry width="50" height="50" relative="1" as="geometry">
            <mxPoint x="450" y="430" as="sourcePoint" />
            <mxPoint x="500" y="380" as="targetPoint" />
          </mxGeometry>
        </mxCell>
        <mxCell id="wONUlLobx3IYYTzE_S_x-23" value="" style="endArrow=classic;html=1;rounded=0;fontSize=12;startSize=8;endSize=8;curved=1;entryX=0;entryY=0.5;entryDx=0;entryDy=0;exitX=1;exitY=0.5;exitDx=0;exitDy=0;" edge="1" parent="1" source="wONUlLobx3IYYTzE_S_x-15" target="wONUlLobx3IYYTzE_S_x-9">
          <mxGeometry width="50" height="50" relative="1" as="geometry">
            <mxPoint x="450" y="430" as="sourcePoint" />
            <mxPoint x="500" y="380" as="targetPoint" />
          </mxGeometry>
        </mxCell>
        <mxCell id="wONUlLobx3IYYTzE_S_x-25" value="" style="endArrow=classic;html=1;rounded=0;fontSize=12;startSize=8;endSize=8;curved=1;entryX=0.5;entryY=0;entryDx=0;entryDy=0;entryPerimeter=0;exitX=0.5;exitY=1;exitDx=0;exitDy=0;" edge="1" parent="1" source="wONUlLobx3IYYTzE_S_x-8" target="wONUlLobx3IYYTzE_S_x-10">
          <mxGeometry width="50" height="50" relative="1" as="geometry">
            <mxPoint x="450" y="430" as="sourcePoint" />
            <mxPoint x="500" y="380" as="targetPoint" />
          </mxGeometry>
        </mxCell>
        <mxCell id="wONUlLobx3IYYTzE_S_x-26" value="" style="endArrow=classic;html=1;rounded=0;fontSize=12;startSize=8;endSize=8;curved=1;entryX=0;entryY=0.25;entryDx=0;entryDy=0;exitX=0.5;exitY=1;exitDx=0;exitDy=0;" edge="1" parent="1" source="wONUlLobx3IYYTzE_S_x-15" target="wONUlLobx3IYYTzE_S_x-8">
          <mxGeometry width="50" height="50" relative="1" as="geometry">
            <mxPoint x="450" y="430" as="sourcePoint" />
            <mxPoint x="500" y="380" as="targetPoint" />
          </mxGeometry>
        </mxCell>
        <mxCell id="wONUlLobx3IYYTzE_S_x-27" value="" style="endArrow=classic;html=1;rounded=0;fontSize=12;startSize=8;endSize=8;curved=1;entryX=0;entryY=0.5;entryDx=0;entryDy=0;" edge="1" parent="1" target="wONUlLobx3IYYTzE_S_x-8">
          <mxGeometry width="50" height="50" relative="1" as="geometry">
            <mxPoint x="410" y="464" as="sourcePoint" />
            <mxPoint x="460" y="414" as="targetPoint" />
          </mxGeometry>
        </mxCell>
        <mxCell id="wONUlLobx3IYYTzE_S_x-28" value="Rest&lt;br&gt;Client" style="ellipse;shape=cloud;whiteSpace=wrap;html=1;fontSize=16;" vertex="1" parent="1">
          <mxGeometry x="150" y="425" width="120" height="80" as="geometry" />
        </mxCell>
        <mxCell id="wONUlLobx3IYYTzE_S_x-29" value="" style="endArrow=classic;html=1;rounded=0;fontSize=12;startSize=8;endSize=8;curved=1;entryX=0;entryY=0.5;entryDx=0;entryDy=0;strokeColor=#FFFFFF;" edge="1" parent="1" target="wONUlLobx3IYYTzE_S_x-14">
          <mxGeometry width="50" height="50" relative="1" as="geometry">
            <mxPoint x="270" y="465" as="sourcePoint" />
            <mxPoint x="320" y="420" as="targetPoint" />
          </mxGeometry>
        </mxCell>
      </root>
    </mxGraphModel>
  </diagram>
</mxfile>
